PathFileType  4	(X/Y/Z) /workspace/Data/0bb06e95-9abd-4511-9c1c-ff42f7dfbbb3/MarkerData/PostAugmentation
DataRate	CameraRate	NumFrames	NumMarkers	Units	OrigDataRate	OrigDataStartFrame	OrigNumFrames
240.0	240.0	4	36	m	240.0	362	413
Frame#	Time	r.ASIS_study			L.ASIS_study			r.PSIS_study			L.PSIS_study			r_knee_study			r_mknee_study			r_ankle_study			r_mankle_study			r_toe_study			r_5meta_study			r_calc_study			L_knee_study			L_mknee_study			r_shoulder_study			L_shoulder_study			C7_study			r_thigh1_study			r_thigh2_study			r_thigh3_study			L_thigh1_study			L_thigh2_study			L_thigh3_study			r_sh1_study			r_sh2_study			r_sh3_study			RHJC_study			LHJC_study			r_lelbow_study			r_melbow_study			r_lwrist_study			r_mwrist_study			L_lelbow_study			L_melbow_study			L_lwrist_study			L_mwrist_study			blade_keel			
		X1	Y1	Z1	X2	Y2	Z2	X3	Y3	Z3	X4	Y4	Z4	X5	Y5	Z5	X6	Y6	Z6	X7	Y7	Z7	X8	Y8	Z8	X9	Y9	Z9	X10	Y10	Z10	X11	Y11	Z11	X12	Y12	Z12	X13	Y13	Z13	X14	Y14	Z14	X15	Y15	Z15	X16	Y16	Z16	X17	Y17	Z17	X18	Y18	Z18	X19	Y19	Z19	X20	Y20	Z20	X21	Y21	Z21	X22	Y22	Z22	X23	Y23	Z23	X24	Y24	Z24	X25	Y25	Z25	X26	Y26	Z26	X27	Y27	Z27	X28	Y28	Z28	X29	Y29	Z29	X30	Y30	Z30	X31	Y31	Z31	X32	Y32	Z32	X33	Y33	Z33	X34	Y34	Z34	X35	Y35	Z35	X36	Y36	Z36	

362	1.5041667	1.6211408	0.9109406	-0.2797559	1.6437401	0.9242653	-0.5976262	1.4629564	0.9889163	-0.3864746	1.4726210	0.9931448	-0.5100684	1.7460203	0.5127006	-0.2173814	1.7856778	0.5138961	-0.3418903	1.6897095	0.1078242	-0.2213921	1.7362109	0.1148049	-0.3138465	1.8398717	0.0425969	-0.2336040	1.7768580	0.0453087	-0.1812565	1.6386851	0.1005724	-0.2970172	1.4769701	0.4222677	-0.6115897	1.4707409	0.4169468	-0.5270913	1.7268872	1.3331300	-0.2071692	1.8160068	1.3794436	-0.5027561	1.7100000	1.3955546	-0.3656917	1.6617633	0.7834419	-0.2329620	1.6853223	0.6750985	-0.2033277	1.5494641	0.7152877	-0.2231251	1.5843189	0.6816352	-0.6090397	1.5429812	0.5820923	-0.6261892	1.5008611	0.7132569	-0.6353848	1.7391521	0.3872820	-0.2011045	1.7494974	0.2711881	-0.1833801	1.6737882	0.2763459	-0.2028803	1.5181512	0.8434166	-0.3602929	1.5313287	0.8516727	-0.5519568	1.4437692	1.1728806	-0.0816521	1.4408764	1.1484309	-0.1439696	1.3692797	0.9419867	-0.0603814	1.3178270	0.9683463	-0.0557657	1.8130630	1.1421982	-0.7323895	1.7336074	1.1052965	-0.6931435	1.8959926	1.0369063	-0.5168445	1.9189797	0.9895029	-0.5567204	0.9437986	0.1585991	-0.5714508	
363	1.5083333	1.6456412	0.9098026	-0.2777974	1.6663437	0.9254617	-0.5957990	1.4872989	0.9862824	-0.3828220	1.4962418	0.9914247	-0.5065715	1.7610050	0.5018555	-0.2163422	1.7995797	0.5017306	-0.3410012	1.6926921	0.1004275	-0.2202986	1.7383391	0.1059877	-0.3128812	1.8397326	0.0348093	-0.2333340	1.7776486	0.0376613	-0.1806722	1.6410248	0.0928623	-0.2953872	1.5099092	0.4141716	-0.6067282	1.5021709	0.4089508	-0.5223613	1.7507507	1.3279217	-0.2044913	1.8366124	1.3784410	-0.5025010	1.7319026	1.3918111	-0.3627943	1.6856957	0.7761091	-0.2319860	1.7058371	0.6667838	-0.2023591	1.5715190	0.7121345	-0.2212133	1.6126047	0.6793477	-0.6044748	1.5732689	0.5774870	-0.6214614	1.5291089	0.7100094	-0.6326914	1.7501983	0.3772394	-0.1999085	1.7568121	0.2614833	-0.1825666	1.6822635	0.2686597	-0.2013166	1.5435380	0.8417986	-0.3583181	1.5555612	0.8514188	-0.5500678	1.4674016	1.1574830	-0.0781970	1.4629671	1.1336645	-0.1472585	1.4086213	0.9178430	-0.0666358	1.3533067	0.9414928	-0.0597041	1.8195493	1.1417082	-0.7350990	1.7390391	1.1075750	-0.6949682	1.9017760	1.0188178	-0.5273825	1.9202874	0.9714959	-0.5719177	0.9743079	0.1620105	-0.5664998	
364	1.5125000	1.6699990	0.9081083	-0.2756998	1.6886938	0.9263337	-0.5939842	1.5109474	0.9830928	-0.3791550	1.5191644	0.9891605	-0.5031087	1.7755272	0.4913512	-0.2153166	1.8129233	0.4898802	-0.3403574	1.6955614	0.0940002	-0.2199910	1.7401617	0.0981464	-0.3126991	1.8395375	0.0290508	-0.2339468	1.7786979	0.0314233	-0.1808643	1.6428992	0.0857592	-0.2946914	1.5437944	0.4071545	-0.6028309	1.5352711	0.4020437	-0.5180874	1.7748708	1.3214284	-0.2027499	1.8574230	1.3763577	-0.5032027	1.7537038	1.3872304	-0.3607652	1.7090244	0.7680838	-0.2306486	1.7258611	0.6581658	-0.2011132	1.5932596	0.7089715	-0.2191674	1.6408360	0.6780610	-0.6010072	1.6037687	0.5739222	-0.6178510	1.5567545	0.7068440	-0.6306375	1.7608786	0.3678294	-0.1991054	1.7638508	0.2525842	-0.1822115	1.6905445	0.2616667	-0.2003611	1.5685098	0.8398218	-0.3563560	1.5793038	0.8509386	-0.5482783	1.4927915	1.1418144	-0.0749164	1.4868733	1.1192785	-0.1494219	1.4500709	0.8955845	-0.0732442	1.3911531	0.9159467	-0.0635397	1.8259867	1.1409322	-0.7378168	1.7448278	1.1093738	-0.6962845	1.9070717	1.0009136	-0.5390662	1.9204645	0.9544018	-0.5882334	1.0059173	0.1644979	-0.5620902	
365	1.5166667	1.6938247	0.9053408	-0.2738433	1.7107857	0.9249033	-0.5923030	1.5337100	0.9785945	-0.3766007	1.5413065	0.9850829	-0.5006967	1.7898936	0.4809807	-0.2139223	1.8261286	0.4780629	-0.3390929	1.6977323	0.0881374	-0.2193093	1.7412803	0.0906964	-0.3119145	1.8388182	0.0240254	-0.2335955	1.7790372	0.0260850	-0.1803961	1.6439084	0.0789952	-0.2936456	1.5783772	0.3996317	-0.5994269	1.5695730	0.3947748	-0.5139005	1.7992310	1.3143261	-0.2015637	1.8786678	1.3730483	-0.5044677	1.7754782	1.3823409	-0.3598905	1.7313213	0.7593643	-0.2292377	1.7452234	0.6491752	-0.1997029	1.6146602	0.7051819	-0.2172092	1.6689443	0.6760392	-0.5982275	1.6343626	0.5696577	-0.6149385	1.5839526	0.7019947	-0.6289806	1.7712714	0.3586632	-0.1979976	1.7702847	0.2439482	-0.1815317	1.6984123	0.2551782	-0.1991087	1.5928356	0.8367409	-0.3544182	1.6025670	0.8486024	-0.5464468	1.5199497	1.1252551	-0.0718633	1.5124176	1.1044537	-0.1506572	1.4930513	0.8743929	-0.0801812	1.4308855	0.8910832	-0.0673255	1.8327795	1.1393704	-0.7404007	1.7513229	1.1101628	-0.6971859	1.9117551	0.9823060	-0.5519988	1.9195083	0.9374540	-0.6057044	1.0387301	0.1661811	-0.5583087	
